<svg version="1.1" id="Layer_1" xmlns="http://www.w3.org/2000/svg" xmlns:xlink="http://www.w3.org/1999/xlink" x="0px" y="0px"
	 width="100%" viewBox="0 0 666 375" enable-background="new 0 0 666 375" xml:space="preserve">
<path fill="#000000" opacity="1.000000" stroke="none" 
	d="
M487.000000,376.000000 
	C324.705505,376.000000 162.911011,376.000000 1.058252,376.000000 
	C1.058252,251.068848 1.058252,126.137672 1.058252,1.103246 
	C222.877853,1.103246 444.755768,1.103246 666.816833,1.103246 
	C666.816833,125.999779 666.816833,250.999863 666.816833,376.000000 
	C607.137634,376.000000 547.318787,376.000000 487.000000,376.000000 
M270.996216,255.987167 
	C270.996216,255.987167 270.949799,255.941925 270.320862,256.169769 
	C269.522217,257.439667 268.723602,258.709595 267.992096,259.995361 
	C267.992096,259.995361 268.003418,259.927338 267.399597,260.066925 
	C267.165771,260.403381 266.931946,260.739838 266.256836,261.258850 
	C265.865173,261.745667 265.473511,262.232513 264.513367,263.022797 
	C264.072723,263.687561 263.632050,264.352295 262.891205,265.658356 
	C260.355255,267.423828 257.675568,269.016388 255.307999,270.984436 
	C244.615540,279.872559 231.367065,282.453003 218.419617,284.647034 
	C211.516556,285.816803 203.549744,284.405182 196.803223,282.043884 
	C182.128189,276.907654 170.108673,268.092438 160.289246,255.334854 
	C142.872803,232.707031 137.826416,207.751694 141.992325,180.216049 
	C143.949966,167.276581 147.405090,154.673355 155.153946,144.066299 
	C161.283600,135.675705 168.148239,127.439812 176.143417,120.922523 
	C181.913925,116.218674 189.955963,114.122787 197.197922,111.438553 
	C214.138245,105.159637 230.614059,107.495537 246.210205,115.749657 
	C258.462708,122.234169 268.486237,131.349014 275.426178,143.654129 
	C276.350708,145.293381 279.058380,146.724030 281.019958,146.834351 
	C287.322754,147.188843 293.662933,146.879211 300.919312,146.982300 
	C318.279785,146.931061 335.640289,146.879807 353.924072,146.967972 
	C357.922546,146.971512 361.955719,147.266586 365.897858,146.797134 
	C367.048126,146.660141 368.894348,144.234207 368.758606,143.047745 
	C368.429718,140.173660 367.276642,137.349762 366.183258,134.614548 
	C359.876556,118.837540 351.833710,103.940956 340.525696,91.260239 
	C332.350311,82.092461 323.423370,73.410446 313.858826,65.721970 
	C305.623566,59.102070 296.063904,54.110157 286.997040,48.549679 
	C276.810272,42.302399 265.656616,38.448612 254.007339,36.080914 
	C246.371155,34.528870 238.675690,33.218075 230.961014,32.121071 
	C226.142365,31.435871 221.241104,31.123297 216.372162,31.069096 
	C212.780975,31.029118 209.182556,31.681963 205.586548,32.017319 
	C200.028275,32.535671 194.313797,32.400936 188.942978,33.694778 
	C177.721176,36.398144 166.354797,39.025440 155.657120,43.233120 
	C144.951004,47.444115 134.201874,52.445480 124.903267,59.100712 
	C114.007645,66.898964 104.411507,76.603111 94.741844,85.985703 
	C89.945801,90.639359 86.072952,96.296967 82.106529,101.736687 
	C78.861855,106.186577 75.400269,110.687622 73.254700,115.689285 
	C67.457726,129.202881 61.154804,142.507950 58.263008,157.181290 
	C55.825706,169.548477 52.495510,181.817398 53.190712,194.465866 
	C53.881470,207.033508 54.963814,219.687057 57.337177,232.021469 
	C59.306892,242.258163 62.612000,252.431259 66.790596,261.992218 
	C70.558487,270.613464 76.459892,278.282745 81.161804,286.519470 
	C90.421600,302.740601 103.264351,315.869843 117.441978,327.608246 
	C131.293808,339.076935 147.093369,347.546753 164.260269,353.002014 
	C184.282227,359.364532 204.732895,363.483734 225.916229,360.929749 
	C235.287842,359.799896 244.698792,358.563171 253.893799,356.494476 
	C271.222260,352.596039 287.335022,345.441895 302.224091,335.822083 
	C308.633301,331.681122 314.332520,326.441254 320.140350,321.869049 
	C319.818298,320.816528 319.786926,320.476044 319.624695,320.217773 
	C309.790131,304.561829 306.417358,286.938660 303.955109,269.022217 
	C303.406219,265.028137 302.554291,261.075653 301.995453,256.184448 
	C301.957184,244.124512 303.406982,246.229263 291.732910,246.016769 
	C290.409363,245.992676 289.076385,245.911240 287.762848,246.027084 
	C284.437134,246.320343 281.119995,246.710754 277.441162,247.137817 
	C277.203308,247.271683 277.088165,247.475021 276.423462,248.023895 
	C275.865692,249.047867 275.307892,250.071823 274.407776,251.154785 
	C274.183624,251.285095 274.077698,251.479752 273.453918,252.026505 
	C273.027405,252.774216 272.600891,253.521927 272.066010,254.477951 
	C272.066010,254.477951 272.082397,254.712189 271.506348,254.947769 
	C271.314911,255.291092 271.123505,255.634415 270.996216,255.987167 
M472.025360,191.184586 
	C472.078735,213.769699 472.132111,236.354828 472.018433,259.734680 
	C471.652771,261.825287 471.287109,263.915924 470.295685,266.340057 
	C468.076416,269.857361 466.495239,274.081726 463.522736,276.764404 
	C453.047058,286.218658 435.717377,289.334930 422.230438,280.796051 
	C411.937866,274.279602 408.998718,264.148987 407.976807,252.190567 
	C407.596649,250.115372 407.216461,248.040161 406.584686,245.131149 
	C381.212616,245.087585 355.840515,245.035202 330.468445,245.039429 
	C329.631531,245.039566 328.794647,245.614792 327.201599,246.370026 
	C327.127289,254.151917 326.502808,261.980530 327.158264,269.700439 
	C327.654510,275.544983 329.783783,281.250824 331.073700,287.783905 
	C331.394104,288.691803 331.770538,289.584167 332.026581,290.509888 
	C336.537994,306.820679 345.126343,320.806305 357.303558,332.341278 
	C365.341797,339.955536 374.670807,345.790985 384.829865,350.697906 
	C397.310944,356.726349 410.166290,359.419128 424.170441,360.691101 
	C435.680481,360.792358 447.190491,360.906433 458.700775,360.949554 
	C459.179688,360.951355 459.661072,360.290009 460.989349,359.955170 
	C462.898590,359.636780 464.805450,359.059387 466.717499,359.041504 
	C480.431488,358.913391 492.276855,353.454834 504.385651,347.552399 
	C519.222961,340.319946 529.576111,328.897522 539.230225,316.277649 
	C547.457642,305.522736 552.422302,293.406342 555.148743,279.342194 
	C555.761841,273.845551 556.853760,268.353363 556.905151,262.851471 
	C557.128906,238.890152 557.050049,214.926010 556.974731,190.977722 
	C556.974731,190.977722 556.988342,191.084366 557.504700,190.923386 
	C557.606689,190.612762 557.708679,190.302139 557.961975,189.387695 
	C558.297424,188.659302 558.632874,187.930893 559.766846,187.043655 
	C561.731506,186.361282 563.691650,185.101608 565.661438,185.086365 
	C584.099060,184.943710 602.540100,184.887939 620.975159,185.154205 
	C623.863342,185.195923 624.961548,184.518646 624.984253,181.944733 
	C625.022400,177.623291 624.897400,173.300415 624.988586,168.054871 
	C624.938660,154.710663 624.888672,141.366455 624.979614,127.094719 
	C624.987061,123.104507 625.003052,119.114288 624.999512,115.124084 
	C624.995911,111.059204 623.577454,108.867119 618.881897,108.927902 
	C602.258545,109.143089 585.630737,109.001633 569.004578,109.014236 
	C566.631104,109.016037 564.257690,109.121910 561.291443,108.790337 
	C559.811707,106.920074 558.332031,105.049812 556.989563,102.214828 
	C556.993774,79.957466 557.016785,57.700054 556.960266,35.442841 
	C556.956482,33.940983 556.352844,32.440651 556.004944,30.995718 
	C556.004944,30.995718 556.060120,30.970270 555.688599,30.251663 
	C553.808899,30.224344 551.929138,30.197023 549.194214,30.039198 
	C540.748901,30.267866 532.303650,30.496534 523.282776,30.173986 
	C506.577515,30.178268 489.872253,30.182552 472.264038,30.208551 
	C472.201141,54.759750 472.138275,79.310951 471.415588,104.189438 
	C470.609894,107.397926 468.089722,108.500313 464.274994,109.030121 
	C445.483765,109.072769 426.692505,109.115410 407.046387,109.061241 
	C406.702698,110.531456 406.063873,112.000809 406.059570,113.472015 
	C405.993774,135.909576 406.007599,158.347397 406.017090,180.785156 
	C406.017639,182.063629 406.140839,183.342041 406.227081,185.009949 
	C413.657318,185.009949 420.770111,184.897278 427.878113,185.033798 
	C441.915802,185.303421 455.950806,185.710953 470.002777,186.002762 
	C470.002777,186.002762 469.942169,186.007431 470.077667,186.592621 
	C470.411194,186.803299 470.744751,187.013977 471.082458,187.493286 
	C471.082458,187.493286 471.212341,187.728470 471.062744,188.476822 
	C471.408264,189.079788 471.753754,189.682770 472.025360,191.184586 
z"/>
<path fill="#FEA303" opacity="1.000000" stroke="none" 
	d="
M265.081879,262.719360 
	C265.473511,262.232513 265.865173,261.745667 266.761414,261.058044 
	C267.511780,260.547272 267.757599,260.237305 268.003418,259.927338 
	C268.003418,259.927338 267.992096,259.995361 268.311829,259.937866 
	C269.404327,258.567566 270.177063,257.254730 270.949799,255.941925 
	C270.949799,255.941925 270.996216,255.987167 271.251526,255.878464 
	C271.698669,255.417236 271.890533,255.064713 272.082397,254.712189 
	C272.082397,254.712189 272.066010,254.477951 272.421631,254.219589 
	C273.214813,253.220398 273.652435,252.479584 274.090027,251.738754 
	C274.077698,251.479752 274.183624,251.285095 274.948090,251.033936 
	C276.024170,249.858002 276.559967,248.802917 277.095734,247.747818 
	C277.088165,247.475021 277.203308,247.271683 278.106781,247.117218 
	C282.432404,247.066376 286.092529,246.997711 289.752350,247.013321 
	C299.228241,247.053757 299.225433,247.069229 301.357300,256.238037 
	C301.429230,256.547546 301.676422,256.816284 301.841919,257.104034 
	C302.554291,261.075653 303.406219,265.028137 303.955109,269.022217 
	C306.417358,286.938660 309.790131,304.561829 319.624695,320.217773 
	C319.786926,320.476044 319.818298,320.816528 320.140350,321.869049 
	C314.332520,326.441254 308.633301,331.681122 302.224091,335.822083 
	C287.335022,345.441895 271.222260,352.596039 253.893799,356.494476 
	C244.698792,358.563171 235.287842,359.799896 225.916229,360.929749 
	C204.732895,363.483734 184.282227,359.364532 164.260269,353.002014 
	C147.093369,347.546753 131.293808,339.076935 117.441978,327.608246 
	C103.264351,315.869843 90.421600,302.740601 81.161804,286.519470 
	C76.459892,278.282745 70.558487,270.613464 66.790596,261.992218 
	C62.612000,252.431259 59.306892,242.258163 57.337177,232.021469 
	C54.963814,219.687057 53.881470,207.033508 53.190712,194.465866 
	C52.495510,181.817398 55.825706,169.548477 58.263008,157.181290 
	C61.154804,142.507950 67.457726,129.202881 73.254700,115.689285 
	C75.400269,110.687622 78.861855,106.186577 82.106529,101.736687 
	C86.072952,96.296967 89.945801,90.639359 94.741844,85.985703 
	C104.411507,76.603111 114.007645,66.898964 124.903267,59.100712 
	C134.201874,52.445480 144.951004,47.444115 155.657120,43.233120 
	C166.354797,39.025440 177.721176,36.398144 188.942978,33.694778 
	C194.313797,32.400936 200.028275,32.535671 205.586548,32.017319 
	C209.182556,31.681963 212.780975,31.029118 216.372162,31.069096 
	C221.241104,31.123297 226.142365,31.435871 230.961014,32.121071 
	C238.675690,33.218075 246.371155,34.528870 254.007339,36.080914 
	C265.656616,38.448612 276.810272,42.302399 286.997040,48.549679 
	C296.063904,54.110157 305.623566,59.102070 313.858826,65.721970 
	C323.423370,73.410446 332.350311,82.092461 340.525696,91.260239 
	C351.833710,103.940956 359.876556,118.837540 366.183258,134.614548 
	C367.276642,137.349762 368.429718,140.173660 368.758606,143.047745 
	C368.894348,144.234207 367.048126,146.660141 365.897858,146.797134 
	C361.955719,147.266586 357.922546,146.971512 353.118927,146.664703 
	C335.473724,146.270935 318.633667,146.172760 301.793488,146.121384 
	C301.192627,146.119553 300.590302,146.580505 299.988678,146.825760 
	C293.662933,146.879211 287.322754,147.188843 281.019958,146.834351 
	C279.058380,146.724030 276.350708,145.293381 275.426178,143.654129 
	C268.486237,131.349014 258.462708,122.234169 246.210205,115.749657 
	C230.614059,107.495537 214.138245,105.159637 197.197922,111.438553 
	C189.955963,114.122787 181.913925,116.218674 176.143417,120.922523 
	C168.148239,127.439812 161.283600,135.675705 155.153946,144.066299 
	C147.405090,154.673355 143.949966,167.276581 141.992325,180.216049 
	C137.826416,207.751694 142.872803,232.707031 160.289246,255.334854 
	C170.108673,268.092438 182.128189,276.907654 196.803223,282.043884 
	C203.549744,284.405182 211.516556,285.816803 218.419617,284.647034 
	C231.367065,282.453003 244.615540,279.872559 255.307999,270.984436 
	C257.675568,269.016388 260.355255,267.423828 263.345337,265.234558 
	C264.226929,264.113647 264.654419,263.416504 265.081879,262.719360 
z"/>
<path fill="#FEA302" opacity="1.000000" stroke="none" 
	d="
M407.831055,253.006149 
	C408.998718,264.148987 411.937866,274.279602 422.230438,280.796051 
	C435.717377,289.334930 453.047058,286.218658 463.522736,276.764404 
	C466.495239,274.081726 468.076416,269.857361 470.890015,265.936279 
	C472.321777,262.041351 473.841125,258.558472 473.883423,255.057755 
	C474.118317,235.614944 474.020691,216.167709 473.952759,196.722275 
	C473.945984,194.786636 473.372192,192.852951 472.999268,190.770996 
	C472.936920,190.623611 472.887726,190.307373 472.878418,189.977280 
	C472.316864,189.007614 471.764618,188.368042 471.212341,187.728455 
	C471.212341,187.728470 471.082458,187.493286 470.970642,187.087036 
	C470.553284,186.456345 470.247711,186.231888 469.942169,186.007431 
	C469.942169,186.007431 470.002777,186.002762 469.859772,185.664230 
	C467.689545,184.871429 465.665192,184.038864 463.634613,184.023315 
	C448.666565,183.908630 433.697266,183.970261 418.728394,183.949692 
	C407.331238,183.934036 407.338409,183.916931 407.857086,172.701675 
	C407.926208,171.207718 407.885712,169.708405 407.886169,168.211578 
	C407.891663,151.080505 408.029938,133.947708 407.810486,116.819489 
	C407.751038,112.180962 409.308075,110.817986 413.857178,110.893898 
	C428.489349,111.138069 443.128326,111.015961 457.764252,110.943169 
	C459.878326,110.932663 461.989929,110.417992 464.319397,110.016861 
	C464.816101,109.711601 465.053802,109.482300 465.249237,109.209198 
	C468.089722,108.500313 470.609894,107.397926 472.011566,103.718353 
	C472.772919,101.941757 473.081207,100.636383 473.082367,99.330734 
	C473.101257,77.906036 473.081390,56.481316 473.199463,34.690956 
	C473.583557,30.818520 476.025024,30.793552 478.684692,30.796492 
	C493.742523,30.813137 508.800446,30.756731 523.858337,30.725201 
	C532.303650,30.496534 540.748901,30.267866 549.744995,30.381701 
	C552.217163,30.806227 554.138672,30.888248 556.060120,30.970270 
	C556.060120,30.970270 556.004944,30.995718 555.962769,31.437563 
	C555.920288,53.875385 555.898682,75.871422 555.960205,97.867218 
	C555.965149,99.638817 556.541504,101.408813 556.852295,103.179550 
	C558.332031,105.049812 559.811707,106.920074 561.965454,109.178886 
	C564.449463,109.709320 566.258972,109.968796 568.069336,109.974541 
	C582.842834,110.021393 597.616516,110.027252 612.390137,110.032608 
	C622.972534,110.036438 622.876404,110.028740 623.011414,120.810890 
	C623.104370,128.236069 623.509644,135.657364 623.825684,143.539688 
	C623.922974,152.326096 623.969971,160.653229 623.772949,169.312164 
	C623.336487,171.948196 623.043457,174.249222 622.970825,176.557190 
	C622.760803,183.233124 622.122620,183.926620 615.419861,183.939224 
	C598.929199,183.970245 582.438293,183.933121 565.947998,184.016251 
	C563.247986,184.029861 560.026794,183.381699 558.968323,187.202499 
	C558.632874,187.930893 558.297424,188.659302 557.720947,189.849609 
	C557.275696,190.543488 557.111877,190.801102 556.988342,191.084366 
	C556.988342,191.084366 556.974731,190.977722 556.741638,191.281799 
	C556.316406,193.555252 555.965027,195.524048 555.957642,197.494125 
	C555.903259,211.983932 556.033752,226.475296 555.870056,240.963501 
	C555.759277,250.768341 555.247559,260.568329 554.952026,270.371582 
	C554.853699,273.633575 554.870056,276.899078 554.833984,280.162964 
	C552.422302,293.406342 547.457642,305.522736 539.230225,316.277649 
	C529.576111,328.897522 519.222961,340.319946 504.385651,347.552399 
	C492.276855,353.454834 480.431488,358.913391 466.717499,359.041504 
	C464.805450,359.059387 462.898590,359.636780 460.086975,359.905396 
	C447.374542,359.859070 435.564484,359.862488 423.754425,359.865906 
	C410.166290,359.419128 397.310944,356.726349 384.829865,350.697906 
	C374.670807,345.790985 365.341797,339.955536 357.303558,332.341278 
	C345.126343,320.806305 336.537994,306.820679 332.026581,290.509888 
	C331.770538,289.584167 331.394104,288.691803 331.318542,287.093079 
	C331.476715,285.106262 331.438049,283.804932 331.295868,282.515015 
	C330.208008,272.645264 329.026093,262.785156 328.032410,252.906052 
	C327.600464,248.611847 329.986572,247.035446 334.105621,247.047745 
	C356.570099,247.114777 379.034882,247.091812 401.499481,247.059219 
	C404.112335,247.055420 406.101440,247.465179 406.237854,250.720734 
	C406.270660,251.503418 407.274048,252.245422 407.831055,253.006149 
z"/>
<path fill="#E3A73B" opacity="1.000000" stroke="none" 
	d="
M464.102661,110.136635 
	C461.989929,110.417992 459.878326,110.932663 457.764252,110.943169 
	C443.128326,111.015961 428.489349,111.138069 413.857178,110.893898 
	C409.308075,110.817986 407.751038,112.180962 407.810486,116.819489 
	C408.029938,133.947708 407.891663,151.080505 407.886169,168.211578 
	C407.885712,169.708405 407.926208,171.207718 407.857086,172.701675 
	C407.338409,183.916931 407.331238,183.934036 418.728394,183.949692 
	C433.697266,183.970261 448.666565,183.908630 463.634613,184.023315 
	C465.665192,184.038864 467.689545,184.871429 469.851868,185.693573 
	C455.950806,185.710953 441.915802,185.303421 427.878113,185.033798 
	C420.770111,184.897278 413.657318,185.009949 406.227081,185.009949 
	C406.140839,183.342041 406.017639,182.063629 406.017090,180.785156 
	C406.007599,158.347397 405.993774,135.909576 406.059570,113.472015 
	C406.063873,112.000809 406.702698,110.531456 407.840881,109.321793 
	C410.934967,109.714226 413.234039,109.949448 415.534302,109.961395 
	C431.723602,110.045555 447.913177,110.083755 464.102661,110.136635 
z"/>
<path fill="#E1AA3F" opacity="1.000000" stroke="none" 
	d="
M407.903931,252.598358 
	C407.274048,252.245422 406.270660,251.503418 406.237854,250.720734 
	C406.101440,247.465179 404.112335,247.055420 401.499481,247.059219 
	C379.034882,247.091812 356.570099,247.114777 334.105621,247.047745 
	C329.986572,247.035446 327.600464,248.611847 328.032410,252.906052 
	C329.026093,262.785156 330.208008,272.645264 331.295868,282.515015 
	C331.438049,283.804932 331.476715,285.106262 331.374847,286.710327 
	C329.783783,281.250824 327.654510,275.544983 327.158264,269.700439 
	C326.502808,261.980530 327.127289,254.151917 328.048981,246.187256 
	C354.876343,245.991302 380.856293,245.978134 406.836273,245.964966 
	C407.216461,248.040161 407.596649,250.115372 407.903931,252.598358 
z"/>
<path fill="#EDAC35" opacity="1.000000" stroke="none" 
	d="
M623.775391,143.080399 
	C623.509644,135.657364 623.104370,128.236069 623.011414,120.810890 
	C622.876404,110.028740 622.972534,110.036438 612.390137,110.032608 
	C597.616516,110.027252 582.842834,110.021393 568.069336,109.974541 
	C566.258972,109.968796 564.449463,109.709320 562.261902,109.373520 
	C564.257690,109.121910 566.631104,109.016037 569.004578,109.014236 
	C585.630737,109.001633 602.258545,109.143089 618.881897,108.927902 
	C623.577454,108.867119 624.995911,111.059204 624.999512,115.124084 
	C625.003052,119.114288 624.987061,123.104507 624.586792,127.829849 
	C624.054382,133.403442 623.914917,138.241928 623.775391,143.080399 
z"/>
<path fill="#EDAC35" opacity="1.000000" stroke="none" 
	d="
M559.367554,187.123077 
	C560.026794,183.381699 563.247986,184.029861 565.947998,184.016251 
	C582.438293,183.933121 598.929199,183.970245 615.419861,183.939224 
	C622.122620,183.926620 622.760803,183.233124 622.970825,176.557190 
	C623.043457,174.249222 623.336487,171.948196 623.978943,169.304077 
	C624.429016,168.964188 624.841003,168.978134 624.841064,168.978134 
	C624.897400,173.300415 625.022400,177.623291 624.984253,181.944733 
	C624.961548,184.518646 623.863342,185.195923 620.975159,185.154205 
	C602.540100,184.887939 584.099060,184.943710 565.661438,185.086365 
	C563.691650,185.101608 561.731506,186.361282 559.367554,187.123077 
z"/>
<path fill="#F2B54C" opacity="1.000000" stroke="none" 
	d="
M554.991333,279.752563 
	C554.870056,276.899078 554.853699,273.633575 554.952026,270.371582 
	C555.247559,260.568329 555.759277,250.768341 555.870056,240.963501 
	C556.033752,226.475296 555.903259,211.983932 555.957642,197.494125 
	C555.965027,195.524048 556.316406,193.555252 556.794800,191.274384 
	C557.050049,214.926010 557.128906,238.890152 556.905151,262.851471 
	C556.853760,268.353363 555.761841,273.845551 554.991333,279.752563 
z"/>
<path fill="#E3A73B" opacity="1.000000" stroke="none" 
	d="
M473.061584,190.918365 
	C473.372192,192.852951 473.945984,194.786636 473.952759,196.722275 
	C474.020691,216.167709 474.118317,235.614944 473.883423,255.057755 
	C473.841125,258.558472 472.321777,262.041351 471.202942,265.769501 
	C471.287109,263.915924 471.652771,261.825287 472.311310,258.984558 
	C472.735046,255.919144 472.973969,253.604126 472.979858,251.288513 
	C473.030823,231.165192 473.040009,211.041763 473.061584,190.918365 
z"/>
<path fill="#FFFFFF" opacity="1.000000" stroke="none" 
	d="
M406.710480,245.548050 
	C380.856293,245.978134 354.876343,245.991302 328.427063,245.963211 
	C328.794647,245.614792 329.631531,245.039566 330.468445,245.039429 
	C355.840515,245.035202 381.212616,245.087585 406.710480,245.548050 
z"/>
<path fill="#FEDEBC" opacity="1.000000" stroke="none" 
	d="
M473.070251,35.056599 
	C473.081390,56.481316 473.101257,77.906036 473.082367,99.330734 
	C473.081207,100.636383 472.772919,101.941757 472.341461,103.554703 
	C472.138275,79.310951 472.201141,54.759750 472.645874,30.600344 
	C473.041931,32.346958 473.056091,33.701778 473.070251,35.056599 
z"/>
<path fill="#E8B74C" opacity="1.000000" stroke="none" 
	d="
M556.920898,102.697189 
	C556.541504,101.408813 555.965149,99.638817 555.960205,97.867218 
	C555.898682,75.871422 555.920288,53.875385 555.974365,31.409508 
	C556.352844,32.440651 556.956482,33.940983 556.960266,35.442841 
	C557.016785,57.700054 556.993774,79.957466 556.920898,102.697189 
z"/>
<path fill="#FFE3B6" opacity="1.000000" stroke="none" 
	d="
M472.999268,190.770996 
	C473.040009,211.041763 473.030823,231.165192 472.979858,251.288513 
	C472.973969,253.604126 472.735046,255.919144 472.394836,258.587189 
	C472.132111,236.354828 472.078735,213.769699 472.259125,190.740753 
	C472.492889,190.296921 472.887726,190.307373 472.887726,190.307373 
	C472.887726,190.307373 472.936920,190.623611 472.999268,190.770996 
z"/>
<path fill="#FFD47A" opacity="1.000000" stroke="none" 
	d="
M464.319397,110.016861 
	C447.913177,110.083755 431.723602,110.045555 415.534302,109.961395 
	C413.234039,109.949448 410.934967,109.714226 408.268311,109.370193 
	C426.692505,109.115410 445.483765,109.072769 464.762115,109.119659 
	C465.053802,109.482300 464.816101,109.711601 464.319397,110.016861 
z"/>
<path fill="#FAD187" opacity="1.000000" stroke="none" 
	d="
M473.199463,34.690956 
	C473.056091,33.701778 473.041931,32.346958 473.097351,30.589485 
	C489.872253,30.182552 506.577515,30.178268 523.570557,30.449593 
	C508.800446,30.756731 493.742523,30.813137 478.684692,30.796492 
	C476.025024,30.793552 473.583557,30.818520 473.199463,34.690956 
z"/>
<path fill="#FFFF00" opacity="1.000000" stroke="none" 
	d="
M300.453979,146.904022 
	C300.590302,146.580505 301.192627,146.119553 301.793488,146.121384 
	C318.633667,146.172760 335.473724,146.270935 352.657288,146.594986 
	C335.640289,146.879807 318.279785,146.931061 300.453979,146.904022 
z"/>
<path fill="#FFFFFF" opacity="1.000000" stroke="none" 
	d="
M624.914795,168.516510 
	C624.841003,168.978134 624.429016,168.964188 624.223022,168.972260 
	C623.969971,160.653229 623.922974,152.326096 623.825684,143.539688 
	C623.914917,138.241928 624.054382,133.403442 624.516357,128.293610 
	C624.888672,141.366455 624.938660,154.710663 624.914795,168.516510 
z"/>
<path fill="#E0A940" opacity="1.000000" stroke="none" 
	d="
M301.918701,256.644226 
	C301.676422,256.816284 301.429230,256.547546 301.357300,256.238037 
	C299.225433,247.069229 299.228241,247.053757 289.752350,247.013321 
	C286.092529,246.997711 282.432404,247.066376 278.285889,247.079437 
	C281.119995,246.710754 284.437134,246.320343 287.762848,246.027084 
	C289.076385,245.911240 290.409363,245.992676 291.732910,246.016769 
	C303.406982,246.229263 301.957184,244.124512 301.918701,256.644226 
z"/>
<path fill="#FFE492" opacity="1.000000" stroke="none" 
	d="
M423.962433,360.278503 
	C435.564484,359.862488 447.374542,359.859070 459.662964,359.896606 
	C459.661072,360.290009 459.179688,360.951355 458.700775,360.949554 
	C447.190491,360.906433 435.680481,360.792358 423.962433,360.278503 
z"/>
<path fill="#E8B74C" opacity="1.000000" stroke="none" 
	d="
M555.874390,30.610966 
	C554.138672,30.888248 552.217163,30.806227 550.172607,30.446953 
	C551.929138,30.197023 553.808899,30.224344 555.874390,30.610966 
z"/>
<path fill="#E0A940" opacity="1.000000" stroke="none" 
	d="
M270.635315,256.055847 
	C270.177063,257.254730 269.404327,258.567566 268.278259,259.929932 
	C268.723602,258.709595 269.522217,257.439667 270.635315,256.055847 
z"/>
<path fill="#E0A940" opacity="1.000000" stroke="none" 
	d="
M276.759583,247.885864 
	C276.559967,248.802917 276.024170,249.858002 275.119263,251.004456 
	C275.307892,250.071823 275.865692,249.047867 276.759583,247.885864 
z"/>
<path fill="#E3A73B" opacity="1.000000" stroke="none" 
	d="
M472.878418,189.977280 
	C472.887726,190.307373 472.492889,190.296921 472.296082,190.291321 
	C471.753754,189.682770 471.408264,189.079788 471.137543,188.102631 
	C471.764618,188.368042 472.316864,189.007614 472.878418,189.977280 
z"/>
<path fill="#E0A940" opacity="1.000000" stroke="none" 
	d="
M273.771973,251.882629 
	C273.652435,252.479584 273.214813,253.220398 272.475769,254.115433 
	C272.600891,253.521927 273.027405,252.774216 273.771973,251.882629 
z"/>
<path fill="#E0A940" opacity="1.000000" stroke="none" 
	d="
M264.797607,262.871094 
	C264.654419,263.416504 264.226929,264.113647 263.495422,264.913910 
	C263.632050,264.352295 264.072723,263.687561 264.797607,262.871094 
z"/>
<path fill="#E3A73B" opacity="1.000000" stroke="none" 
	d="
M470.009918,186.300018 
	C470.247711,186.231888 470.553284,186.456345 470.968567,186.952728 
	C470.744751,187.013977 470.411194,186.803299 470.009918,186.300018 
z"/>
<path fill="#F2B54C" opacity="1.000000" stroke="none" 
	d="
M557.246521,191.003876 
	C557.111877,190.801102 557.275696,190.543488 557.645264,190.151520 
	C557.708679,190.302139 557.606689,190.612762 557.246521,191.003876 
z"/>
<path fill="#E0A940" opacity="1.000000" stroke="none" 
	d="
M271.794373,254.829987 
	C271.890533,255.064713 271.698669,255.417236 271.219452,255.873749 
	C271.123505,255.634415 271.314911,255.291092 271.794373,254.829987 
z"/>
<path fill="#E0A940" opacity="1.000000" stroke="none" 
	d="
M267.701508,259.997131 
	C267.757599,260.237305 267.511780,260.547272 266.982056,260.966797 
	C266.931946,260.739838 267.165771,260.403381 267.701508,259.997131 
z"/>
</svg>