<svg version="1.1" id="Layer_1" xmlns="http://www.w3.org/2000/svg" xmlns:xlink="http://www.w3.org/1999/xlink" x="0px" y="0px"
	 width="100%" viewBox="0 0 4093 3584" enable-background="new 0 0 4093 3584" xml:space="preserve">
<path fill="#FFFFFF" opacity="1.000000" stroke="none" 
	d="
M2798.000000,3586.000000 
	C1865.333374,3586.000000 933.666687,3586.000000 2.000000,3586.000000 
	C2.000000,2391.333252 2.000000,1196.666626 2.000000,2.000000 
	C1366.666626,2.000000 2731.333252,2.000000 4096.000000,2.000000 
	C4096.000000,1196.666626 4096.000000,2391.333252 4096.000000,3586.000000 
	C3663.666748,3586.000000 3231.333252,3586.000000 2798.000000,3586.000000 
M1867.439697,569.581909 
	C1837.863525,552.043762 1807.281372,536.531128 1775.147217,524.219360 
	C1727.928589,506.128174 1678.914062,495.177094 1628.952271,488.294281 
	C1597.904053,484.016998 1566.722168,480.735016 1535.306030,482.622192 
	C1485.993652,485.584381 1437.240479,492.528839 1389.181030,504.101868 
	C1318.339355,521.161011 1251.289673,547.192444 1190.343018,587.798340 
	C1141.532593,620.318481 1097.537842,658.374207 1058.723145,702.324768 
	C1004.670898,763.528870 960.514526,830.702637 932.155273,907.936218 
	C891.812622,1017.805115 875.359497,1130.330811 891.886292,1246.739258 
	C902.879883,1324.173950 924.195312,1398.273438 963.590454,1466.696045 
	C996.979004,1524.686279 1033.979248,1579.908813 1080.155762,1628.540405 
	C1160.500488,1713.156128 1256.792847,1771.372803 1369.342041,1802.683105 
	C1430.450073,1819.682983 1492.701538,1827.510742 1556.016479,1827.026245 
	C1586.379761,1826.793945 1616.508911,1823.429321 1646.411377,1818.082153 
	C1702.669312,1808.022461 1757.781006,1793.820190 1809.982300,1770.189209 
	C1861.534912,1746.851929 1908.648193,1716.057129 1953.444580,1681.644653 
	C1958.673828,1677.627686 1963.710571,1673.359985 1969.058472,1669.028564 
	C1915.386719,1574.081909 1899.414429,1470.759399 1895.204712,1364.827393 
	C1893.608887,1364.324341 1892.689697,1363.785278 1891.767578,1363.780273 
	C1864.103516,1363.628174 1836.437866,1363.649780 1808.776367,1363.309448 
	C1803.796387,1363.248169 1801.845215,1366.220947 1799.409790,1369.455322 
	C1787.587769,1385.156006 1776.236206,1401.258667 1763.649170,1416.326172 
	C1731.892456,1454.340820 1693.775269,1483.788452 1646.593994,1500.538208 
	C1620.704712,1509.729004 1594.065063,1515.639771 1566.746094,1517.897461 
	C1550.187622,1519.265991 1533.370117,1520.696289 1516.900391,1519.323364 
	C1473.207642,1515.681152 1433.359497,1500.224609 1396.878418,1476.075806 
	C1347.462036,1443.364746 1309.931519,1399.802734 1281.279907,1348.328369 
	C1255.865234,1302.669189 1239.198975,1253.987549 1234.294800,1201.856079 
	C1229.255859,1148.292236 1234.141846,1095.287598 1248.170166,1043.367432 
	C1268.088745,969.646973 1305.425171,906.576721 1365.203247,857.997070 
	C1414.726318,817.751404 1471.319092,794.033813 1535.220215,790.728821 
	C1598.613037,787.450073 1656.409424,805.015869 1707.849365,842.670044 
	C1744.104858,869.209167 1772.896729,902.700012 1797.742920,939.727112 
	C1802.216675,946.394165 1807.032349,948.724121 1814.780762,948.662292 
	C1862.776367,948.278870 1910.775269,948.245361 1958.773071,948.205750 
	C2026.105103,948.150146 2093.437256,948.197449 2160.769287,948.170776 
	C2164.239990,948.169373 2167.710938,947.886841 2171.772949,947.709473 
	C2171.125732,944.867065 2170.849365,943.251221 2170.387451,941.690308 
	C2167.930176,933.388123 2165.689697,925.009827 2162.897949,916.820374 
	C2131.136475,823.659485 2075.114502,745.835144 2007.575317,676.006104 
	C1966.864014,633.914856 1918.943359,600.354309 1867.439697,569.581909 
M2601.814941,1366.999756 
	C2601.812988,1378.330811 2602.448242,1389.704224 2601.699951,1400.985840 
	C2598.165039,1454.277832 2572.546875,1492.681641 2523.501465,1514.697144 
	C2500.060791,1525.219238 2475.319824,1526.429688 2450.036133,1524.617676 
	C2392.277588,1520.478027 2342.226074,1476.053467 2332.564453,1419.106934 
	C2330.624512,1407.672485 2330.528076,1395.906616 2329.898438,1384.276367 
	C2329.543213,1377.716431 2329.834229,1371.121582 2329.834229,1364.792236 
	C2315.137939,1362.436768 2013.276611,1363.229492 2005.654907,1365.666992 
	C2005.654907,1379.051392 2006.001221,1392.697021 2005.589722,1406.319702 
	C2004.360229,1447.022827 2010.677612,1486.630493 2021.886230,1525.630005 
	C2039.160645,1585.735107 2066.392578,1640.640259 2108.689941,1687.067871 
	C2184.068848,1769.807739 2278.388184,1813.796753 2389.750977,1821.966064 
	C2435.018311,1825.286621 2480.329834,1825.121338 2525.636719,1823.529785 
	C2554.270020,1822.524048 2582.818115,1820.293823 2611.094238,1815.182617 
	C2657.683594,1806.761108 2699.935547,1787.392212 2740.587402,1764.097412 
	C2780.860840,1741.019287 2816.223633,1711.901855 2845.739258,1675.959961 
	C2907.538330,1600.705322 2937.934326,1513.692627 2939.381836,1416.944336 
	C2940.713379,1327.976318 2939.768066,1238.974243 2939.826904,1149.987183 
	C2939.828857,1146.987671 2939.673828,1143.976074 2939.883301,1140.990601 
	C2940.867432,1126.944824 2947.479248,1116.510498 2959.882080,1109.652832 
	C2967.232422,1105.588745 2975.148926,1105.391724 2983.182373,1105.393311 
	C3056.172363,1105.407837 3129.162598,1105.405029 3202.152588,1105.407349 
	C3206.020020,1105.407471 3209.887451,1105.407349 3213.956543,1105.407349 
	C3213.956543,1003.774841 3213.956543,903.616455 3213.956543,802.894836 
	C3210.456055,802.687927 3207.529541,802.370544 3204.602783,802.364868 
	C3182.605713,802.322083 3160.608887,802.340759 3138.611816,802.340149 
	C3085.285645,802.338562 3031.954102,801.891907 2978.636719,802.574768 
	C2959.758789,802.816528 2938.859375,787.999451 2939.652832,763.505249 
	C2939.739258,760.841797 2939.656982,758.173035 2939.656982,755.506714 
	C2939.656006,667.518738 2939.659912,579.530701 2939.639160,491.542725 
	C2939.638184,487.712585 2939.408447,483.882507 2939.286133,480.080566 
	C2826.435791,480.080566 2714.944580,480.080566 2602.353516,480.080566 
	C2602.353516,484.648743 2602.353516,488.562866 2602.353516,492.476990 
	C2602.350830,580.464966 2602.349121,668.453003 2602.341797,756.440979 
	C2602.341309,760.440125 2602.474609,764.451050 2602.224365,768.436340 
	C2601.163086,785.345215 2588.707520,799.428772 2572.003906,802.316833 
	C2567.115723,803.161987 2562.065918,803.361816 2557.089844,803.366333 
	C2485.099609,803.431519 2413.109375,803.412903 2341.119141,803.414307 
	C2337.261475,803.414368 2333.403809,803.414307 2329.818359,803.414307 
	C2327.493896,817.951477 2328.227783,1098.472534 2330.587402,1105.835449 
	C2343.660889,1105.835449 2356.966309,1105.835571 2370.271729,1105.835571 
	C2434.929688,1105.835938 2499.587402,1105.792114 2564.245361,1105.859619 
	C2587.836426,1105.884277 2601.383789,1119.420654 2601.788086,1143.030396 
	C2601.833496,1145.695923 2601.805420,1148.362915 2601.805664,1151.029175 
	C2601.809082,1222.352783 2601.812012,1293.676392 2601.814941,1366.999756 
M3577.002197,2584.196045 
	C3603.212402,2584.196045 3629.422607,2584.196045 3655.874023,2584.196045 
	C3655.874023,2446.281494 3655.874023,2309.496582 3655.874023,2172.494141 
	C3617.620117,2172.494141 3579.876953,2172.494141 3541.485596,2172.494141 
	C3541.485596,2248.799316 3541.486084,2324.409912 3541.456543,2400.020264 
	C3541.456299,2400.213379 3541.042236,2400.457520 3540.776855,2400.585449 
	C3540.512451,2400.712646 3540.191895,2400.722656 3539.275635,2400.912598 
	C3489.468750,2324.787842 3439.533691,2248.467285 3389.778809,2172.422363 
	C3370.630371,2170.689209 3282.065430,2171.416260 3274.993408,2173.288330 
	C3274.993408,2310.085205 3274.993408,2446.857178 3274.993408,2583.726074 
	C3313.240479,2583.726074 3350.788086,2583.726074 3389.436768,2583.726074 
	C3389.436768,2545.704834 3389.381592,2508.143066 3389.452393,2470.581299 
	C3389.523193,2433.198242 3389.132324,2395.807129 3390.544922,2358.266113 
	C3392.763672,2359.865723 3394.148438,2361.591797 3395.368408,2363.427490 
	C3403.849365,2376.187988 3412.291992,2388.974121 3420.754883,2401.746826 
	C3459.572021,2460.330078 3498.462646,2518.864990 3537.086182,2577.575928 
	C3540.456055,2582.698486 3544.039062,2584.662109 3550.018311,2584.315430 
	C3558.321289,2583.833984 3566.673096,2584.195557 3577.002197,2584.196045 
M1726.998901,2584.195557 
	C1739.154541,2584.116699 1751.325317,2584.369141 1763.299683,2584.035156 
	C1765.446533,2552.130127 1764.430786,2179.841797 1762.296631,2172.297852 
	C1724.726807,2172.297852 1687.174316,2172.297852 1648.576416,2172.297852 
	C1648.576416,2185.350342 1648.576416,2197.928955 1648.576416,2210.507568 
	C1648.576416,2223.170898 1648.576416,2235.833984 1648.576416,2248.497314 
	C1648.576416,2261.160645 1648.576416,2273.823975 1648.576416,2286.487305 
	C1648.576416,2299.483887 1648.576416,2312.480225 1648.576416,2325.476807 
	C1648.576416,2338.140137 1648.708008,2350.804932 1648.538940,2363.466064 
	C1648.373779,2375.833496 1649.286011,2388.256104 1647.744873,2402.440186 
	C1644.792358,2398.115234 1642.917847,2395.468018 1641.143311,2392.755615 
	C1594.644897,2321.682861 1548.094971,2250.643555 1501.785034,2179.447998 
	C1498.112183,2173.801514 1494.248535,2171.547852 1487.400879,2171.629395 
	C1455.080811,2172.015381 1422.753540,2171.786865 1390.428833,2171.823975 
	C1387.583008,2171.827393 1384.737427,2172.167480 1382.368042,2172.320312 
	C1382.368042,2310.144287 1382.368042,2446.929932 1382.368042,2583.635498 
	C1420.607910,2583.635498 1458.110474,2583.635498 1496.454712,2583.635498 
	C1496.454712,2508.006592 1496.454712,2432.932129 1496.454712,2357.857666 
	C1497.092163,2357.621582 1497.729614,2357.385498 1498.367065,2357.149414 
	C1548.469360,2432.749023 1598.571533,2508.348389 1648.838013,2584.195557 
	C1674.382202,2584.195557 1699.690796,2584.195557 1726.998901,2584.195557 
M917.582703,2471.334961 
	C933.863220,2504.701904 957.156738,2532.014893 988.182556,2552.512207 
	C1033.758179,2582.620850 1083.965088,2593.522949 1137.761963,2586.186768 
	C1210.468994,2576.271240 1264.729980,2539.029785 1298.210938,2473.268555 
	C1318.143799,2434.118164 1323.355103,2392.129883 1318.200806,2348.867432 
	C1310.308838,2282.624756 1278.611084,2230.915283 1221.581787,2195.790283 
	C1176.296631,2167.898682 1126.480835,2159.666504 1074.554688,2167.976807 
	C994.752625,2180.748779 938.132812,2224.577637 909.892456,2300.823486 
	C888.892944,2357.519775 892.112427,2414.541992 917.582703,2471.334961 
M2833.050293,2507.939941 
	C2847.234863,2526.312744 2864.073975,2541.806152 2883.642090,2554.283691 
	C2928.740967,2583.041016 2978.072754,2593.287354 3030.768555,2586.207275 
	C3097.906738,2577.186035 3149.883789,2544.048340 3184.565430,2485.432861 
	C3210.740479,2441.193848 3217.411621,2392.866699 3210.131104,2342.732910 
	C3199.959229,2272.686768 3163.275635,2220.577637 3100.217041,2187.960938 
	C3058.288330,2166.273682 3013.374023,2161.025635 2967.107910,2167.870361 
	C2912.010742,2176.021484 2866.880859,2201.940674 2832.267578,2245.897461 
	C2775.815186,2317.588379 2774.726807,2433.645752 2833.050293,2507.939941 
M2526.830078,2215.892090 
	C2535.868896,2201.670898 2544.907715,2187.449707 2554.583008,2172.227539 
	C2510.177979,2172.227539 2467.351318,2172.227539 2423.853516,2172.227539 
	C2402.076172,2209.216553 2380.172607,2246.419922 2357.790283,2284.436279 
	C2355.163574,2280.862793 2353.182861,2278.320312 2351.362305,2275.668213 
	C2329.499512,2243.819824 2307.446533,2212.098145 2285.996826,2179.973389 
	C2281.714355,2173.559326 2277.208984,2171.558594 2269.770752,2171.629883 
	C2231.459473,2171.997559 2193.142334,2171.790771 2154.827393,2171.820312 
	C2152.028564,2171.822510 2149.229736,2172.107666 2144.969482,2172.341309 
	C2191.446777,2239.928711 2237.013672,2306.192139 2282.494629,2372.330811 
	C2237.930420,2443.111816 2193.464600,2512.840576 2148.818115,2583.923828 
	C2193.644775,2583.923828 2236.553711,2583.923828 2280.102295,2583.923828 
	C2302.583252,2545.748291 2325.133057,2507.455811 2348.254395,2468.192871 
	C2351.680664,2473.083008 2354.173096,2476.587646 2356.612305,2480.128906 
	C2378.903564,2512.492188 2401.283447,2544.795166 2423.365479,2577.300293 
	C2426.689209,2582.192871 2430.134766,2584.375244 2436.230713,2584.333008 
	C2475.876465,2584.060303 2515.525146,2584.197021 2555.172852,2584.177246 
	C2557.340576,2584.176270 2559.508545,2583.976074 2563.513428,2583.777832 
	C2516.027832,2514.777588 2469.498779,2447.167480 2422.817139,2379.335693 
	C2457.433105,2324.948486 2491.747070,2271.035889 2526.830078,2215.892090 
M843.937683,2310.930420 
	C843.234924,2308.364258 842.615967,2305.771729 841.817139,2303.235840 
	C821.120483,2237.530762 777.975342,2194.535156 711.588806,2175.663086 
	C674.722534,2165.183105 637.110962,2164.479736 599.789490,2172.325195 
	C536.017395,2185.730713 488.679108,2221.314941 462.325958,2281.520996 
	C437.383850,2338.503662 436.139130,2397.463623 455.760681,2456.111328 
	C477.068176,2519.798584 521.472412,2560.590820 585.930176,2579.029785 
	C619.741028,2588.701416 654.375671,2589.652344 688.920654,2583.885498 
	C753.267151,2573.143799 801.432251,2539.596191 830.597839,2480.472412 
	C837.773438,2465.926270 842.943970,2450.623535 845.856262,2434.099121 
	C804.199341,2434.099121 763.349182,2434.099121 722.597351,2434.099121 
	C721.364746,2436.224609 720.381531,2437.958008 719.363159,2439.670166 
	C702.265198,2468.417236 676.631226,2481.691650 643.580750,2480.808350 
	C609.639954,2479.901611 585.616760,2463.241699 571.027893,2433.004395 
	C559.351562,2408.803711 558.104248,2382.956299 560.953369,2356.773682 
	C562.550293,2342.098633 566.918579,2328.210205 574.013306,2315.121338 
	C604.251526,2259.336670 687.740662,2260.863525 717.807251,2312.388916 
	C719.468811,2315.236328 721.238464,2318.020508 722.828796,2320.623047 
	C763.929199,2320.623047 804.489014,2320.623047 845.815186,2320.623047 
	C845.217834,2317.537598 844.731995,2315.028320 843.937683,2310.930420 
M2560.433105,2862.502197 
	C2526.477051,2811.093262 2492.463135,2759.722168 2458.662598,2708.211182 
	C2455.616211,2703.568604 2452.567627,2701.364258 2446.727051,2701.464111 
	C2424.408936,2701.845703 2402.080566,2701.594727 2379.755859,2701.659180 
	C2377.256104,2701.666504 2374.757568,2702.180420 2372.592529,2702.422119 
	C2372.592529,2838.756104 2372.592529,2974.217041 2372.592529,3109.623291 
	C2399.979004,3109.623291 2426.743652,3109.623291 2454.338623,3109.623291 
	C2454.338623,3017.489014 2454.338623,2926.096924 2454.338623,2834.704834 
	C2454.948486,2834.487549 2455.558350,2834.270020 2456.167969,2834.052734 
	C2517.078613,2926.061768 2577.989258,3018.070557 2638.621826,3109.659180 
	C2666.453369,3109.659180 2693.591309,3109.659180 2720.896973,3109.659180 
	C2720.896973,2973.482178 2720.896973,2838.019043 2720.896973,2702.240723 
	C2693.581543,2702.240723 2666.803467,2702.240723 2639.403076,2702.240723 
	C2639.403076,2733.464111 2639.403076,2764.066406 2639.403076,2794.668945 
	C2639.403076,2825.323730 2639.404785,2855.978516 2639.402588,2886.633301 
	C2639.400391,2917.076416 2639.414062,2947.519775 2639.389648,2977.962646 
	C2638.615967,2978.138184 2637.842041,2978.313965 2637.068359,2978.489502 
	C2611.803955,2940.221436 2586.539307,2901.953125 2560.433105,2862.502197 
M1839.637817,2353.000000 
	C1839.637817,2429.848877 1839.637817,2506.697754 1839.637817,2583.414795 
	C1860.778564,2585.470947 2095.983643,2584.633789 2102.939209,2582.665039 
	C2102.939209,2552.812744 2102.939209,2523.025391 2102.939209,2492.156982 
	C2053.081787,2492.156982 2003.963379,2492.156982 1954.882690,2492.156982 
	C1954.882690,2466.925537 1954.882690,2442.792725 1954.882690,2417.726562 
	C1998.726196,2417.726562 2041.885986,2417.726562 2085.203857,2417.726562 
	C2085.203857,2388.324219 2085.203857,2359.873291 2085.203857,2330.423340 
	C2041.417114,2330.423340 1998.263062,2330.423340 1954.876953,2330.423340 
	C1954.876953,2307.312012 1954.876953,2285.212891 1954.876953,2262.097412 
	C2004.687988,2262.097412 2053.822021,2262.097412 2103.096191,2262.097412 
	C2103.096191,2231.587402 2103.096191,2202.105713 2103.096191,2172.471191 
	C2015.068237,2172.471191 1927.631226,2172.471191 1839.637817,2172.471191 
	C1839.637817,2232.427490 1839.637817,2291.713623 1839.637817,2353.000000 
M1266.150024,2717.167969 
	C1266.150024,2794.148193 1266.074341,2871.128418 1266.231201,2948.108154 
	C1266.254883,2959.741943 1266.527466,2971.488281 1268.108765,2982.986572 
	C1275.680908,3038.048828 1303.477539,3078.842285 1355.599609,3100.227539 
	C1405.990723,3120.902344 1457.114502,3119.837158 1507.353882,3099.111328 
	C1542.075195,3084.787109 1567.130859,3059.729980 1582.610718,3025.426758 
	C1592.358032,3003.826416 1596.155151,2980.923096 1596.170288,2957.358887 
	C1596.223389,2874.713623 1596.198975,2792.068359 1596.177124,2709.423096 
	C1596.176514,2707.196777 1595.868652,2704.970703 1595.684814,2702.483887 
	C1568.194946,2702.483887 1541.382568,2702.483887 1513.639404,2702.483887 
	C1513.639404,2706.543457 1513.639526,2710.132324 1513.639526,2713.720947 
	C1513.639404,2792.700439 1513.691650,2871.680176 1513.561646,2950.659424 
	C1513.547974,2958.958252 1513.090820,2967.358398 1511.756348,2975.534912 
	C1506.815308,3005.809814 1490.546631,3026.937012 1460.424561,3035.568848 
	C1442.204956,3040.790283 1423.623901,3041.009766 1405.084351,3036.511475 
	C1376.879395,3029.668945 1358.745361,3012.267578 1352.105347,2984.084961 
	C1349.461670,2972.864502 1348.403076,2961.035400 1348.357178,2949.476074 
	C1348.044556,2870.831055 1348.194702,2792.184082 1348.195312,2713.537842 
	C1348.195312,2709.969971 1348.195312,2706.402344 1348.195312,2702.681152 
	C1320.323364,2702.681152 1293.569946,2702.681152 1266.150024,2702.681152 
	C1266.150024,2707.322266 1266.150024,2711.270264 1266.150024,2717.167969 
M1742.763794,3002.306396 
	C1755.958618,3038.187256 1769.153320,3074.067871 1782.371948,3110.013672 
	C1815.861938,3110.013672 1848.776855,3110.013672 1881.508301,3110.013672 
	C1888.742432,3095.966309 2029.650024,2709.449219 2030.139404,2702.520508 
	C2001.603271,2702.520508 1973.065063,2702.520508 1944.303833,2702.520508 
	C1907.209351,2809.720703 1870.260132,2916.501465 1833.310791,3023.282227 
	C1832.698486,3023.347900 1832.086304,3023.413574 1831.473999,3023.479492 
	C1794.596802,2916.391113 1757.719727,2809.302734 1720.876587,2702.312988 
	C1691.347900,2702.312988 1662.762695,2702.312988 1632.841309,2702.312988 
	C1669.474365,2802.309570 1705.841675,2901.581055 1742.763794,3002.306396 
M2307.842773,3075.006348 
	C2307.842773,3065.435547 2307.842773,3055.864746 2307.842773,3045.331543 
	C2255.923584,3045.331543 2205.076416,3045.331543 2153.712158,3045.331543 
	C2153.712158,3008.243164 2153.712158,2972.138184 2153.712158,2934.826660 
	C2199.437256,2934.826660 2244.540283,2934.826660 2289.434814,2934.826660 
	C2289.434814,2913.156006 2289.434814,2892.693604 2289.434814,2871.446777 
	C2243.791504,2871.446777 2198.908203,2871.446777 2153.556396,2871.446777 
	C2153.556396,2836.147217 2153.556396,2801.632080 2153.556396,2766.021484 
	C2179.588867,2766.021484 2205.163330,2766.021240 2230.737793,2766.021240 
	C2256.247314,2766.021240 2281.756592,2766.021484 2307.144531,2766.021484 
	C2307.144531,2743.726318 2307.144531,2722.914551 2307.144531,2702.177734 
	C2281.268799,2700.093506 2078.396973,2701.101562 2071.235107,2703.256104 
	C2071.235107,2838.776611 2071.235107,2974.262451 2071.235107,3110.365967 
	C2150.370605,3110.364014 2228.832031,3110.366455 2307.842773,3110.364502 
	C2307.842773,3098.250000 2307.842773,3087.626465 2307.842773,3075.006348 
M2728.014160,2481.000000 
	C2728.014160,2378.206787 2728.014160,2275.413330 2728.014160,2172.518066 
	C2689.132080,2172.518066 2651.414795,2172.518066 2613.524170,2172.518066 
	C2613.524170,2309.988037 2613.524170,2446.740967 2613.524170,2583.485352 
	C2651.882080,2583.485352 2689.653564,2583.485352 2728.014160,2583.485352 
	C2728.014160,2549.520020 2728.014160,2516.260010 2728.014160,2481.000000 
M1182.189575,2801.000000 
	C1182.189575,2768.171875 1182.189575,2735.343994 1182.189575,2702.614746 
	C1153.906006,2702.614746 1127.092041,2702.614746 1099.642700,2702.614746 
	C1099.642700,2706.864990 1099.642700,2710.483887 1099.642700,2714.103027 
	C1099.642090,2804.399170 1099.671997,2894.695557 1099.575562,2984.991699 
	C1099.568848,2991.286133 1099.071167,2997.654053 1098.035889,3003.859863 
	C1094.175659,3026.998047 1079.047974,3040.712402 1055.674561,3041.172607 
	C1036.121460,3041.558105 1019.749512,3035.161621 1011.152588,3011.357422 
	C1009.365173,3006.408447 1008.726685,3001.029053 1007.730896,2995.815430 
	C1007.127319,2992.655029 1006.854675,2989.431396 1006.382324,2985.849365 
	C978.643372,2985.806885 951.843750,2985.728271 924.324585,2985.882568 
	C924.901245,2993.665039 925.311035,2999.936279 925.838562,3006.197266 
	C929.973633,3055.273438 961.382385,3094.148438 1008.635010,3108.099365 
	C1038.053345,3116.784424 1067.947876,3117.213867 1097.442505,3109.300781 
	C1135.748291,3099.023682 1162.440918,3075.249512 1175.259521,3037.148926 
	C1180.506226,3021.554443 1182.238892,3005.363525 1182.218628,2988.923584 
	C1182.142456,2926.948975 1182.188965,2864.974609 1182.189575,2801.000000 
M3000.979492,2701.982178 
	C2982.417480,2701.982178 2963.855225,2701.982178 2944.809082,2701.982178 
	C2944.809082,2838.487549 2944.809082,2973.923340 2944.809082,3109.637695 
	C3016.994873,3109.637695 3088.696777,3109.637695 3160.422852,3109.637695 
	C3160.422852,3088.740723 3160.422852,3068.578369 3160.422852,3047.510498 
	C3115.601318,3047.510498 3071.429199,3047.510498 3026.371094,3047.510498 
	C3026.371094,3030.352539 3026.371094,3014.097412 3026.371094,2997.842285 
	C3026.371094,2981.180908 3026.371094,2964.519531 3026.371094,2947.858154 
	C3026.371094,2931.530029 3026.371094,2915.201904 3026.371094,2898.873779 
	C3026.371094,2882.545654 3026.371094,2866.217529 3026.371094,2849.889404 
	C3026.371094,2833.561279 3026.371094,2817.233154 3026.371094,2800.905029 
	C3026.371094,2784.243652 3026.377197,2767.582520 3026.369385,2750.921143 
	C3026.361572,2734.756348 3026.405518,2718.589600 3026.339111,2701.982178 
	C3017.561035,2701.982178 3010.264404,2701.982178 3000.979492,2701.982178 
M2791.811768,3051.000000 
	C2791.811768,3070.544189 2791.811768,3090.088135 2791.811768,3109.731689 
	C2819.737793,3109.731689 2846.521973,3109.731689 2873.420654,3109.731689 
	C2873.420654,2973.666016 2873.420654,2838.235352 2873.420654,2702.622559 
	C2846.036377,2702.622559 2819.258057,2702.622559 2791.811768,2702.622559 
	C2791.811768,2818.513428 2791.811768,2933.756836 2791.811768,3051.000000 
M2926.291748,2130.761719 
	C2926.291748,2136.050049 2926.291748,2141.338379 2926.291748,2148.091064 
	C2975.760742,2128.708740 3024.201660,2109.729248 3072.192871,2090.925781 
	C3074.068604,2075.076904 3073.457764,2011.509033 3071.355469,2004.351318 
	C3022.916260,2026.260864 2974.541260,2048.141357 2926.290771,2069.965332 
	C2926.290771,2090.221191 2926.290771,2109.521729 2926.291748,2130.761719 
z"/>
<path fill="#FFA402" opacity="1.000000" stroke="none" 
	d="
M1868.086182,569.917969 
	C1918.943359,600.354309 1966.864014,633.914856 2007.575317,676.006104 
	C2075.114502,745.835144 2131.136475,823.659485 2162.897949,916.820374 
	C2165.689697,925.009827 2167.930176,933.388123 2170.387451,941.690308 
	C2170.849365,943.251221 2171.125732,944.867065 2171.772949,947.709473 
	C2167.710938,947.886841 2164.239990,948.169373 2160.769287,948.170776 
	C2093.437256,948.197449 2026.105103,948.150146 1958.773071,948.205750 
	C1910.775269,948.245361 1862.776367,948.278870 1814.780762,948.662292 
	C1807.032349,948.724121 1802.216675,946.394165 1797.742920,939.727112 
	C1772.896729,902.700012 1744.104858,869.209167 1707.849365,842.670044 
	C1656.409424,805.015869 1598.613037,787.450073 1535.220215,790.728821 
	C1471.319092,794.033813 1414.726318,817.751404 1365.203247,857.997070 
	C1305.425171,906.576721 1268.088745,969.646973 1248.170166,1043.367432 
	C1234.141846,1095.287598 1229.255859,1148.292236 1234.294800,1201.856079 
	C1239.198975,1253.987549 1255.865234,1302.669189 1281.279907,1348.328369 
	C1309.931519,1399.802734 1347.462036,1443.364746 1396.878418,1476.075806 
	C1433.359497,1500.224609 1473.207642,1515.681152 1516.900391,1519.323364 
	C1533.370117,1520.696289 1550.187622,1519.265991 1566.746094,1517.897461 
	C1594.065063,1515.639771 1620.704712,1509.729004 1646.593994,1500.538208 
	C1693.775269,1483.788452 1731.892456,1454.340820 1763.649170,1416.326172 
	C1776.236206,1401.258667 1787.587769,1385.156006 1799.409790,1369.455322 
	C1801.845215,1366.220947 1803.796387,1363.248169 1808.776367,1363.309448 
	C1836.437866,1363.649780 1864.103516,1363.628174 1891.767578,1363.780273 
	C1892.689697,1363.785278 1893.608887,1364.324341 1895.204712,1364.827393 
	C1899.414429,1470.759399 1915.386719,1574.081909 1969.058472,1669.028564 
	C1963.710571,1673.359985 1958.673828,1677.627686 1953.444580,1681.644653 
	C1908.648193,1716.057129 1861.534912,1746.851929 1809.982300,1770.189209 
	C1757.781006,1793.820190 1702.669312,1808.022461 1646.411377,1818.082153 
	C1616.508911,1823.429321 1586.379761,1826.793945 1556.016479,1827.026245 
	C1492.701538,1827.510742 1430.450073,1819.682983 1369.342041,1802.683105 
	C1256.792847,1771.372803 1160.500488,1713.156128 1080.155762,1628.540405 
	C1033.979248,1579.908813 996.979004,1524.686279 963.590454,1466.696045 
	C924.195312,1398.273438 902.879883,1324.173950 891.886292,1246.739258 
	C875.359497,1130.330811 891.812622,1017.805115 932.155273,907.936218 
	C960.514526,830.702637 1004.670898,763.528870 1058.723145,702.324768 
	C1097.537842,658.374207 1141.532593,620.318481 1190.343018,587.798340 
	C1251.289673,547.192444 1318.339355,521.161011 1389.181030,504.101868 
	C1437.240479,492.528839 1485.993652,485.584381 1535.306030,482.622192 
	C1566.722168,480.735016 1597.904053,484.016998 1628.952271,488.294281 
	C1678.914062,495.177094 1727.928589,506.128174 1775.147217,524.219360 
	C1807.281372,536.531128 1837.863525,552.043762 1868.086182,569.917969 
z"/>
<path fill="#FFA402" opacity="1.000000" stroke="none" 
	d="
M2601.814941,1365.999878 
	C2601.812012,1293.676392 2601.809082,1222.352783 2601.805664,1151.029175 
	C2601.805420,1148.362915 2601.833496,1145.695923 2601.788086,1143.030396 
	C2601.383789,1119.420654 2587.836426,1105.884277 2564.245361,1105.859619 
	C2499.587402,1105.792114 2434.929688,1105.835938 2370.271729,1105.835571 
	C2356.966309,1105.835571 2343.660889,1105.835449 2330.587402,1105.835449 
	C2328.227783,1098.472534 2327.493896,817.951477 2329.818359,803.414307 
	C2333.403809,803.414307 2337.261475,803.414368 2341.119141,803.414307 
	C2413.109375,803.412903 2485.099609,803.431519 2557.089844,803.366333 
	C2562.065918,803.361816 2567.115723,803.161987 2572.003906,802.316833 
	C2588.707520,799.428772 2601.163086,785.345215 2602.224365,768.436340 
	C2602.474609,764.451050 2602.341309,760.440125 2602.341797,756.440979 
	C2602.349121,668.453003 2602.350830,580.464966 2602.353516,492.476990 
	C2602.353516,488.562866 2602.353516,484.648743 2602.353516,480.080566 
	C2714.944580,480.080566 2826.435791,480.080566 2939.286133,480.080566 
	C2939.408447,483.882507 2939.638184,487.712585 2939.639160,491.542725 
	C2939.659912,579.530701 2939.656006,667.518738 2939.656982,755.506714 
	C2939.656982,758.173035 2939.739258,760.841797 2939.652832,763.505249 
	C2938.859375,787.999451 2959.758789,802.816528 2978.636719,802.574768 
	C3031.954102,801.891907 3085.285645,802.338562 3138.611816,802.340149 
	C3160.608887,802.340759 3182.605713,802.322083 3204.602783,802.364868 
	C3207.529541,802.370544 3210.456055,802.687927 3213.956543,802.894836 
	C3213.956543,903.616455 3213.956543,1003.774841 3213.956543,1105.407349 
	C3209.887451,1105.407349 3206.020020,1105.407471 3202.152588,1105.407349 
	C3129.162598,1105.405029 3056.172363,1105.407837 2983.182373,1105.393311 
	C2975.148926,1105.391724 2967.232422,1105.588745 2959.882080,1109.652832 
	C2947.479248,1116.510498 2940.867432,1126.944824 2939.883301,1140.990601 
	C2939.673828,1143.976074 2939.828857,1146.987671 2939.826904,1149.987183 
	C2939.768066,1238.974243 2940.713379,1327.976318 2939.381836,1416.944336 
	C2937.934326,1513.692627 2907.538330,1600.705322 2845.739258,1675.959961 
	C2816.223633,1711.901855 2780.860840,1741.019287 2740.587402,1764.097412 
	C2699.935547,1787.392212 2657.683594,1806.761108 2611.094238,1815.182617 
	C2582.818115,1820.293823 2554.270020,1822.524048 2525.636719,1823.529785 
	C2480.329834,1825.121338 2435.018311,1825.286621 2389.750977,1821.966064 
	C2278.388184,1813.796753 2184.068848,1769.807739 2108.689941,1687.067871 
	C2066.392578,1640.640259 2039.160645,1585.735107 2021.886230,1525.630005 
	C2010.677612,1486.630493 2004.360229,1447.022827 2005.589722,1406.319702 
	C2006.001221,1392.697021 2005.654907,1379.051392 2005.654907,1365.666992 
	C2013.276611,1363.229492 2315.137939,1362.436768 2329.834229,1364.792236 
	C2329.834229,1371.121582 2329.543213,1377.716431 2329.898438,1384.276367 
	C2330.528076,1395.906616 2330.624512,1407.672485 2332.564453,1419.106934 
	C2342.226074,1476.053467 2392.277588,1520.478027 2450.036133,1524.617676 
	C2475.319824,1526.429688 2500.060791,1525.219238 2523.501465,1514.697144 
	C2572.546875,1492.681641 2598.165039,1454.277832 2601.699951,1400.985840 
	C2602.448242,1389.704224 2601.812988,1378.330811 2601.814941,1365.999878 
z"/>
<path fill="#025069" opacity="1.000000" stroke="none" 
	d="
M3576.003174,2584.196045 
	C3566.673096,2584.195557 3558.321289,2583.833984 3550.018311,2584.315430 
	C3544.039062,2584.662109 3540.456055,2582.698486 3537.086182,2577.575928 
	C3498.462646,2518.864990 3459.572021,2460.330078 3420.754883,2401.746826 
	C3412.291992,2388.974121 3403.849365,2376.187988 3395.368408,2363.427490 
	C3394.148438,2361.591797 3392.763672,2359.865723 3390.544922,2358.266113 
	C3389.132324,2395.807129 3389.523193,2433.198242 3389.452393,2470.581299 
	C3389.381592,2508.143066 3389.436768,2545.704834 3389.436768,2583.726074 
	C3350.788086,2583.726074 3313.240479,2583.726074 3274.993408,2583.726074 
	C3274.993408,2446.857178 3274.993408,2310.085205 3274.993408,2173.288330 
	C3282.065430,2171.416260 3370.630371,2170.689209 3389.778809,2172.422363 
	C3439.533691,2248.467285 3489.468750,2324.787842 3539.275635,2400.912598 
	C3540.191895,2400.722656 3540.512451,2400.712646 3540.776855,2400.585449 
	C3541.042236,2400.457520 3541.456299,2400.213379 3541.456543,2400.020264 
	C3541.486084,2324.409912 3541.485596,2248.799316 3541.485596,2172.494141 
	C3579.876953,2172.494141 3617.620117,2172.494141 3655.874023,2172.494141 
	C3655.874023,2309.496582 3655.874023,2446.281494 3655.874023,2584.196045 
	C3629.422607,2584.196045 3603.212402,2584.196045 3576.003174,2584.196045 
z"/>
<path fill="#015069" opacity="1.000000" stroke="none" 
	d="
M1725.999023,2584.195557 
	C1699.690796,2584.195557 1674.382202,2584.195557 1648.838013,2584.195557 
	C1598.571533,2508.348389 1548.469360,2432.749023 1498.367065,2357.149414 
	C1497.729614,2357.385498 1497.092163,2357.621582 1496.454712,2357.857666 
	C1496.454712,2432.932129 1496.454712,2508.006592 1496.454712,2583.635498 
	C1458.110474,2583.635498 1420.607910,2583.635498 1382.368042,2583.635498 
	C1382.368042,2446.929932 1382.368042,2310.144287 1382.368042,2172.320312 
	C1384.737427,2172.167480 1387.583008,2171.827393 1390.428833,2171.823975 
	C1422.753540,2171.786865 1455.080811,2172.015381 1487.400879,2171.629395 
	C1494.248535,2171.547852 1498.112183,2173.801514 1501.785034,2179.447998 
	C1548.094971,2250.643555 1594.644897,2321.682861 1641.143311,2392.755615 
	C1642.917847,2395.468018 1644.792358,2398.115234 1647.744873,2402.440186 
	C1649.286011,2388.256104 1648.373779,2375.833496 1648.538940,2363.466064 
	C1648.708008,2350.804932 1648.576416,2338.140137 1648.576416,2325.476807 
	C1648.576416,2312.480225 1648.576416,2299.483887 1648.576416,2286.487305 
	C1648.576416,2273.823975 1648.576416,2261.160645 1648.576416,2248.497314 
	C1648.576416,2235.833984 1648.576416,2223.170898 1648.576416,2210.507568 
	C1648.576416,2197.928955 1648.576416,2185.350342 1648.576416,2172.297852 
	C1687.174316,2172.297852 1724.726807,2172.297852 1762.296631,2172.297852 
	C1764.430786,2179.841797 1765.446533,2552.130127 1763.299683,2584.035156 
	C1751.325317,2584.369141 1739.154541,2584.116699 1725.999023,2584.195557 
z"/>
<path fill="#025069" opacity="1.000000" stroke="none" 
	d="
M917.218811,2470.678223 
	C892.112427,2414.541992 888.892944,2357.519775 909.892456,2300.823486 
	C938.132812,2224.577637 994.752625,2180.748779 1074.554688,2167.976807 
	C1126.480835,2159.666504 1176.296631,2167.898682 1221.581787,2195.790283 
	C1278.611084,2230.915283 1310.308838,2282.624756 1318.200806,2348.867432 
	C1323.355103,2392.129883 1318.143799,2434.118164 1298.210938,2473.268555 
	C1264.729980,2539.029785 1210.468994,2576.271240 1137.761963,2586.186768 
	C1083.965088,2593.522949 1033.758179,2582.620850 988.182556,2552.512207 
	C957.156738,2532.014893 933.863220,2504.701904 917.218811,2470.678223 
M1154.106934,2471.463135 
	C1177.051270,2458.975830 1191.132812,2439.578613 1198.201172,2414.762207 
	C1204.142700,2393.901855 1204.852661,2372.652832 1201.317017,2351.426758 
	C1192.521851,2298.624756 1155.979004,2269.314697 1102.615479,2271.661377 
	C1060.484497,2273.513916 1030.925659,2296.365234 1019.371704,2336.749512 
	C1011.586182,2363.961914 1011.629883,2391.451660 1020.158752,2418.461670 
	C1029.344238,2447.551514 1047.773315,2468.586914 1077.702515,2477.266113 
	C1103.104858,2484.632568 1128.384888,2483.411377 1154.106934,2471.463135 
z"/>
<path fill="#025069" opacity="1.000000" stroke="none" 
	d="
M2832.606934,2507.377197 
	C2774.726807,2433.645752 2775.815186,2317.588379 2832.267578,2245.897461 
	C2866.880859,2201.940674 2912.010742,2176.021484 2967.107910,2167.870361 
	C3013.374023,2161.025635 3058.288330,2166.273682 3100.217041,2187.960938 
	C3163.275635,2220.577637 3199.959229,2272.686768 3210.131104,2342.732910 
	C3217.411621,2392.866699 3210.740479,2441.193848 3184.565430,2485.432861 
	C3149.883789,2544.048340 3097.906738,2577.186035 3030.768555,2586.207275 
	C2978.072754,2593.287354 2928.740967,2583.041016 2883.642090,2554.283691 
	C2864.073975,2541.806152 2847.234863,2526.312744 2832.606934,2507.377197 
M2909.231689,2403.457275 
	C2917.758789,2449.505859 2945.921631,2476.822266 2991.506348,2481.063477 
	C3042.093750,2485.770020 3078.153564,2459.804932 3090.953125,2414.864258 
	C3098.700439,2387.664062 3098.364746,2360.123291 3089.579834,2333.196045 
	C3079.969727,2303.739014 3060.681152,2283.061523 3030.171631,2275.209961 
	C3018.772461,2272.276367 3006.458252,2271.544678 2994.624268,2271.901855 
	C2953.113281,2273.154297 2923.062500,2297.348145 2911.874268,2337.458008 
	C2905.964111,2358.646729 2905.659912,2380.141357 2909.231689,2403.457275 
z"/>
<path fill="#025069" opacity="1.000000" stroke="none" 
	d="
M2526.445557,2216.507568 
	C2491.747070,2271.035889 2457.433105,2324.948486 2422.817139,2379.335693 
	C2469.498779,2447.167480 2516.027832,2514.777588 2563.513428,2583.777832 
	C2559.508545,2583.976074 2557.340576,2584.176270 2555.172852,2584.177246 
	C2515.525146,2584.197021 2475.876465,2584.060303 2436.230713,2584.333008 
	C2430.134766,2584.375244 2426.689209,2582.192871 2423.365479,2577.300293 
	C2401.283447,2544.795166 2378.903564,2512.492188 2356.612305,2480.128906 
	C2354.173096,2476.587646 2351.680664,2473.083008 2348.254395,2468.192871 
	C2325.133057,2507.455811 2302.583252,2545.748291 2280.102295,2583.923828 
	C2236.553711,2583.923828 2193.644775,2583.923828 2148.818115,2583.923828 
	C2193.464600,2512.840576 2237.930420,2443.111816 2282.494629,2372.330811 
	C2237.013672,2306.192139 2191.446777,2239.928711 2144.969482,2172.341309 
	C2149.229736,2172.107666 2152.028564,2171.822510 2154.827393,2171.820312 
	C2193.142334,2171.790771 2231.459473,2171.997559 2269.770752,2171.629883 
	C2277.208984,2171.558594 2281.714355,2173.559326 2285.996826,2179.973389 
	C2307.446533,2212.098145 2329.499512,2243.819824 2351.362305,2275.668213 
	C2353.182861,2278.320312 2355.163574,2280.862793 2357.790283,2284.436279 
	C2380.172607,2246.419922 2402.076172,2209.216553 2423.853516,2172.227539 
	C2467.351318,2172.227539 2510.177979,2172.227539 2554.583008,2172.227539 
	C2544.907715,2187.449707 2535.868896,2201.670898 2526.445557,2216.507568 
z"/>
<path fill="#025069" opacity="1.000000" stroke="none" 
	d="
M844.091919,2311.724609 
	C844.731995,2315.028320 845.217834,2317.537598 845.815186,2320.623047 
	C804.489014,2320.623047 763.929199,2320.623047 722.828796,2320.623047 
	C721.238464,2318.020508 719.468811,2315.236328 717.807251,2312.388916 
	C687.740662,2260.863525 604.251526,2259.336670 574.013306,2315.121338 
	C566.918579,2328.210205 562.550293,2342.098633 560.953369,2356.773682 
	C558.104248,2382.956299 559.351562,2408.803711 571.027893,2433.004395 
	C585.616760,2463.241699 609.639954,2479.901611 643.580750,2480.808350 
	C676.631226,2481.691650 702.265198,2468.417236 719.363159,2439.670166 
	C720.381531,2437.958008 721.364746,2436.224609 722.597351,2434.099121 
	C763.349182,2434.099121 804.199341,2434.099121 845.856262,2434.099121 
	C842.943970,2450.623535 837.773438,2465.926270 830.597839,2480.472412 
	C801.432251,2539.596191 753.267151,2573.143799 688.920654,2583.885498 
	C654.375671,2589.652344 619.741028,2588.701416 585.930176,2579.029785 
	C521.472412,2560.590820 477.068176,2519.798584 455.760681,2456.111328 
	C436.139130,2397.463623 437.383850,2338.503662 462.325958,2281.520996 
	C488.679108,2221.314941 536.017395,2185.730713 599.789490,2172.325195 
	C637.110962,2164.479736 674.722534,2165.183105 711.588806,2175.663086 
	C777.975342,2194.535156 821.120483,2237.530762 841.817139,2303.235840 
	C842.615967,2305.771729 843.234924,2308.364258 844.091919,2311.724609 
z"/>
<path fill="#034F6B" opacity="1.000000" stroke="none" 
	d="
M2560.854004,2863.093750 
	C2586.539307,2901.953125 2611.803955,2940.221436 2637.068359,2978.489502 
	C2637.842041,2978.313965 2638.615967,2978.138184 2639.389648,2977.962646 
	C2639.414062,2947.519775 2639.400391,2917.076416 2639.402588,2886.633301 
	C2639.404785,2855.978516 2639.403076,2825.323730 2639.403076,2794.668945 
	C2639.403076,2764.066406 2639.403076,2733.464111 2639.403076,2702.240723 
	C2666.803467,2702.240723 2693.581543,2702.240723 2720.896973,2702.240723 
	C2720.896973,2838.019043 2720.896973,2973.482178 2720.896973,3109.659180 
	C2693.591309,3109.659180 2666.453369,3109.659180 2638.621826,3109.659180 
	C2577.989258,3018.070557 2517.078613,2926.061768 2456.167969,2834.052734 
	C2455.558350,2834.270020 2454.948486,2834.487549 2454.338623,2834.704834 
	C2454.338623,2926.096924 2454.338623,3017.489014 2454.338623,3109.623291 
	C2426.743652,3109.623291 2399.979004,3109.623291 2372.592529,3109.623291 
	C2372.592529,2974.217041 2372.592529,2838.756104 2372.592529,2702.422119 
	C2374.757568,2702.180420 2377.256104,2701.666504 2379.755859,2701.659180 
	C2402.080566,2701.594727 2424.408936,2701.845703 2446.727051,2701.464111 
	C2452.567627,2701.364258 2455.616211,2703.568604 2458.662598,2708.211182 
	C2492.463135,2759.722168 2526.477051,2811.093262 2560.854004,2863.093750 
z"/>
<path fill="#025069" opacity="1.000000" stroke="none" 
	d="
M1839.637817,2352.000000 
	C1839.637817,2291.713623 1839.637817,2232.427490 1839.637817,2172.471191 
	C1927.631226,2172.471191 2015.068237,2172.471191 2103.096191,2172.471191 
	C2103.096191,2202.105713 2103.096191,2231.587402 2103.096191,2262.097412 
	C2053.822021,2262.097412 2004.687988,2262.097412 1954.876953,2262.097412 
	C1954.876953,2285.212891 1954.876953,2307.312012 1954.876953,2330.423340 
	C1998.263062,2330.423340 2041.417114,2330.423340 2085.203857,2330.423340 
	C2085.203857,2359.873291 2085.203857,2388.324219 2085.203857,2417.726562 
	C2041.885986,2417.726562 1998.726196,2417.726562 1954.882690,2417.726562 
	C1954.882690,2442.792725 1954.882690,2466.925537 1954.882690,2492.156982 
	C2003.963379,2492.156982 2053.081787,2492.156982 2102.939209,2492.156982 
	C2102.939209,2523.025391 2102.939209,2552.812744 2102.939209,2582.665039 
	C2095.983643,2584.633789 1860.778564,2585.470947 1839.637817,2583.414795 
	C1839.637817,2506.697754 1839.637817,2429.848877 1839.637817,2352.000000 
z"/>
<path fill="#034F6B" opacity="1.000000" stroke="none" 
	d="
M1266.150024,2716.193359 
	C1266.150024,2711.270264 1266.150024,2707.322266 1266.150024,2702.681152 
	C1293.569946,2702.681152 1320.323364,2702.681152 1348.195312,2702.681152 
	C1348.195312,2706.402344 1348.195312,2709.969971 1348.195312,2713.537842 
	C1348.194702,2792.184082 1348.044556,2870.831055 1348.357178,2949.476074 
	C1348.403076,2961.035400 1349.461670,2972.864502 1352.105347,2984.084961 
	C1358.745361,3012.267578 1376.879395,3029.668945 1405.084351,3036.511475 
	C1423.623901,3041.009766 1442.204956,3040.790283 1460.424561,3035.568848 
	C1490.546631,3026.937012 1506.815308,3005.809814 1511.756348,2975.534912 
	C1513.090820,2967.358398 1513.547974,2958.958252 1513.561646,2950.659424 
	C1513.691650,2871.680176 1513.639404,2792.700439 1513.639526,2713.720947 
	C1513.639526,2710.132324 1513.639404,2706.543457 1513.639404,2702.483887 
	C1541.382568,2702.483887 1568.194946,2702.483887 1595.684814,2702.483887 
	C1595.868652,2704.970703 1596.176514,2707.196777 1596.177124,2709.423096 
	C1596.198975,2792.068359 1596.223389,2874.713623 1596.170288,2957.358887 
	C1596.155151,2980.923096 1592.358032,3003.826416 1582.610718,3025.426758 
	C1567.130859,3059.729980 1542.075195,3084.787109 1507.353882,3099.111328 
	C1457.114502,3119.837158 1405.990723,3120.902344 1355.599609,3100.227539 
	C1303.477539,3078.842285 1275.680908,3038.048828 1268.108765,2982.986572 
	C1266.527466,2971.488281 1266.254883,2959.741943 1266.231201,2948.108154 
	C1266.074341,2871.128418 1266.150024,2794.148193 1266.150024,2716.193359 
z"/>
<path fill="#034F6B" opacity="1.000000" stroke="none" 
	d="
M1742.486328,3001.579590 
	C1705.841675,2901.581055 1669.474365,2802.309570 1632.841309,2702.312988 
	C1662.762695,2702.312988 1691.347900,2702.312988 1720.876587,2702.312988 
	C1757.719727,2809.302734 1794.596802,2916.391113 1831.473999,3023.479492 
	C1832.086304,3023.413574 1832.698486,3023.347900 1833.310791,3023.282227 
	C1870.260132,2916.501465 1907.209351,2809.720703 1944.303833,2702.520508 
	C1973.065063,2702.520508 2001.603271,2702.520508 2030.139404,2702.520508 
	C2029.650024,2709.449219 1888.742432,3095.966309 1881.508301,3110.013672 
	C1848.776855,3110.013672 1815.861938,3110.013672 1782.371948,3110.013672 
	C1769.153320,3074.067871 1755.958618,3038.187256 1742.486328,3001.579590 
z"/>
<path fill="#034F6B" opacity="1.000000" stroke="none" 
	d="
M2307.842773,3076.004639 
	C2307.842773,3087.626465 2307.842773,3098.250000 2307.842773,3110.364502 
	C2228.832031,3110.366455 2150.370605,3110.364014 2071.235107,3110.365967 
	C2071.235107,2974.262451 2071.235107,2838.776611 2071.235107,2703.256104 
	C2078.396973,2701.101562 2281.268799,2700.093506 2307.144531,2702.177734 
	C2307.144531,2722.914551 2307.144531,2743.726318 2307.144531,2766.021484 
	C2281.756592,2766.021484 2256.247314,2766.021240 2230.737793,2766.021240 
	C2205.163330,2766.021240 2179.588867,2766.021484 2153.556396,2766.021484 
	C2153.556396,2801.632080 2153.556396,2836.147217 2153.556396,2871.446777 
	C2198.908203,2871.446777 2243.791504,2871.446777 2289.434814,2871.446777 
	C2289.434814,2892.693604 2289.434814,2913.156006 2289.434814,2934.826660 
	C2244.540283,2934.826660 2199.437256,2934.826660 2153.712158,2934.826660 
	C2153.712158,2972.138184 2153.712158,3008.243164 2153.712158,3045.331543 
	C2205.076416,3045.331543 2255.923584,3045.331543 2307.842773,3045.331543 
	C2307.842773,3055.864746 2307.842773,3065.435547 2307.842773,3076.004639 
z"/>
<path fill="#014F68" opacity="1.000000" stroke="none" 
	d="
M2728.014160,2482.000000 
	C2728.014160,2516.260010 2728.014160,2549.520020 2728.014160,2583.485352 
	C2689.653564,2583.485352 2651.882080,2583.485352 2613.524170,2583.485352 
	C2613.524170,2446.740967 2613.524170,2309.988037 2613.524170,2172.518066 
	C2651.414795,2172.518066 2689.132080,2172.518066 2728.014160,2172.518066 
	C2728.014160,2275.413330 2728.014160,2378.206787 2728.014160,2482.000000 
z"/>
<path fill="#034F6A" opacity="1.000000" stroke="none" 
	d="
M1182.189575,2802.000000 
	C1182.188965,2864.974609 1182.142456,2926.948975 1182.218628,2988.923584 
	C1182.238892,3005.363525 1180.506226,3021.554443 1175.259521,3037.148926 
	C1162.440918,3075.249512 1135.748291,3099.023682 1097.442505,3109.300781 
	C1067.947876,3117.213867 1038.053345,3116.784424 1008.635010,3108.099365 
	C961.382385,3094.148438 929.973633,3055.273438 925.838562,3006.197266 
	C925.311035,2999.936279 924.901245,2993.665039 924.324585,2985.882568 
	C951.843750,2985.728271 978.643372,2985.806885 1006.382324,2985.849365 
	C1006.854675,2989.431396 1007.127319,2992.655029 1007.730896,2995.815430 
	C1008.726685,3001.029053 1009.365173,3006.408447 1011.152588,3011.357422 
	C1019.749512,3035.161621 1036.121460,3041.558105 1055.674561,3041.172607 
	C1079.047974,3040.712402 1094.175659,3026.998047 1098.035889,3003.859863 
	C1099.071167,2997.654053 1099.568848,2991.286133 1099.575562,2984.991699 
	C1099.671997,2894.695557 1099.642090,2804.399170 1099.642700,2714.103027 
	C1099.642700,2710.483887 1099.642700,2706.864990 1099.642700,2702.614746 
	C1127.092041,2702.614746 1153.906006,2702.614746 1182.189575,2702.614746 
	C1182.189575,2735.343994 1182.189575,2768.171875 1182.189575,2802.000000 
z"/>
<path fill="#034F6B" opacity="1.000000" stroke="none" 
	d="
M3001.973633,2701.982178 
	C3010.264404,2701.982178 3017.561035,2701.982178 3026.339111,2701.982178 
	C3026.405518,2718.589600 3026.361572,2734.756348 3026.369385,2750.921143 
	C3026.377197,2767.582520 3026.371094,2784.243652 3026.371094,2800.905029 
	C3026.371094,2817.233154 3026.371094,2833.561279 3026.371094,2849.889404 
	C3026.371094,2866.217529 3026.371094,2882.545654 3026.371094,2898.873779 
	C3026.371094,2915.201904 3026.371094,2931.530029 3026.371094,2947.858154 
	C3026.371094,2964.519531 3026.371094,2981.180908 3026.371094,2997.842285 
	C3026.371094,3014.097412 3026.371094,3030.352539 3026.371094,3047.510498 
	C3071.429199,3047.510498 3115.601318,3047.510498 3160.422852,3047.510498 
	C3160.422852,3068.578369 3160.422852,3088.740723 3160.422852,3109.637695 
	C3088.696777,3109.637695 3016.994873,3109.637695 2944.809082,3109.637695 
	C2944.809082,2973.923340 2944.809082,2838.487549 2944.809082,2701.982178 
	C2963.855225,2701.982178 2982.417480,2701.982178 3001.973633,2701.982178 
z"/>
<path fill="#034F6B" opacity="1.000000" stroke="none" 
	d="
M2791.811768,3050.000000 
	C2791.811768,2933.756836 2791.811768,2818.513428 2791.811768,2702.622559 
	C2819.258057,2702.622559 2846.036377,2702.622559 2873.420654,2702.622559 
	C2873.420654,2838.235352 2873.420654,2973.666016 2873.420654,3109.731689 
	C2846.521973,3109.731689 2819.737793,3109.731689 2791.811768,3109.731689 
	C2791.811768,3090.088135 2791.811768,3070.544189 2791.811768,3050.000000 
z"/>
<path fill="#045169" opacity="1.000000" stroke="none" 
	d="
M2926.291260,2129.791992 
	C2926.290771,2109.521729 2926.290771,2090.221191 2926.290771,2069.965332 
	C2974.541260,2048.141357 3022.916260,2026.260864 3071.355469,2004.351318 
	C3073.457764,2011.509033 3074.068604,2075.076904 3072.192871,2090.925781 
	C3024.201660,2109.729248 2975.760742,2128.708740 2926.291748,2148.091064 
	C2926.291748,2141.338379 2926.291748,2136.050049 2926.291260,2129.791992 
z"/>
<path fill="#FDFEFE" opacity="1.000000" stroke="none" 
	d="
M1153.417969,2471.770996 
	C1128.384888,2483.411377 1103.104858,2484.632568 1077.702515,2477.266113 
	C1047.773315,2468.586914 1029.344238,2447.551514 1020.158752,2418.461670 
	C1011.629883,2391.451660 1011.586182,2363.961914 1019.371704,2336.749512 
	C1030.925659,2296.365234 1060.484497,2273.513916 1102.615479,2271.661377 
	C1155.979004,2269.314697 1192.521851,2298.624756 1201.317017,2351.426758 
	C1204.852661,2372.652832 1204.142700,2393.901855 1198.201172,2414.762207 
	C1191.132812,2439.578613 1177.051270,2458.975830 1153.417969,2471.770996 
z"/>
<path fill="#FDFEFE" opacity="1.000000" stroke="none" 
	d="
M2909.008789,2402.620117 
	C2905.659912,2380.141357 2905.964111,2358.646729 2911.874268,2337.458008 
	C2923.062500,2297.348145 2953.113281,2273.154297 2994.624268,2271.901855 
	C3006.458252,2271.544678 3018.772461,2272.276367 3030.171631,2275.209961 
	C3060.681152,2283.061523 3079.969727,2303.739014 3089.579834,2333.196045 
	C3098.364746,2360.123291 3098.700439,2387.664062 3090.953125,2414.864258 
	C3078.153564,2459.804932 3042.093750,2485.770020 2991.506348,2481.063477 
	C2945.921631,2476.822266 2917.758789,2449.505859 2909.008789,2402.620117 
z"/>
</svg>